<svg xmlns="http://www.w3.org/2000/svg" viewBox="0 0 1200.69 1159.18"><defs><style>.cls-1{fill:#fff;}.cls-2{fill:#960019;}.cls-3{font-size:331.78px;}.cls-3,.cls-7{font-family:KaushanScript-Regular, Kaushan Script;}.cls-4{letter-spacing:-0.05em;}.cls-5{letter-spacing:-0.01em;}.cls-6{letter-spacing:0em;}.cls-7{font-size:327.96px;}.cls-8{letter-spacing:-0.01em;}</style></defs><g id="Camada_2" data-name="Camada 2"><g id="Camada_1-2" data-name="Camada 1"><circle class="cls-1" cx="600.35" cy="579.59" r="579.59"/><circle class="cls-2" cx="600.35" cy="579.59" r="329.98"/><text class="cls-3" transform="translate(0 408.62)"><tspan class="cls-4">W</tspan><tspan x="299.93" y="0">e</tspan><tspan class="cls-5" x="433.96" y="0">l</tspan><tspan class="cls-6" x="510.27" y="0">come</tspan></text><text class="cls-7" transform="translate(182.2 880.83)"><tspan class="cls-8">J</tspan><tspan x="163.65" y="0">apan</tspan></text><path d="M157.27,564.47a21,21,0,0,0-1.11-7.38,8.72,8.72,0,0,0-3.31-4.34,9.53,9.53,0,0,0-5.55-1.36h-4.86V590.8c0,1.44,0,2.77-.08,4s-.14,2.18-.24,2.87l3.47-.16c1.3,0,2.3-.08,3-.08v5.27H126.8V598.3a7.19,7.19,0,0,0,3.43-.8,3.87,3.87,0,0,0,1.68-2.39,18.5,18.5,0,0,0,.47-4.71l.08-38.93h-5.18a8.83,8.83,0,0,0-7.18,3.19q-2.47,3.12-2.47,9.81h-4.47l.4-17.63h47.78l.48,17.63Z"/><path d="M182.32,604A21.18,21.18,0,0,1,172,601.45a18.59,18.59,0,0,1-7.3-7.1,20.94,20.94,0,0,1-2.67-10.73,23.9,23.9,0,0,1,2.71-11.49,20.19,20.19,0,0,1,7.3-7.82,19.08,19.08,0,0,1,10.1-2.79,20.42,20.42,0,0,1,10.21,2.56,19.07,19.07,0,0,1,7.22,7.1A20.88,20.88,0,0,1,202.27,582a24.7,24.7,0,0,1-2.59,11.52A18.89,18.89,0,0,1,182.32,604Zm.4-4.86a6.86,6.86,0,0,0,5.51-2.24,12.75,12.75,0,0,0,2.67-5.7,33,33,0,0,0,.76-7.14,38.7,38.7,0,0,0-.52-6.3,24.51,24.51,0,0,0-1.64-5.79,10.91,10.91,0,0,0-2.95-4.14,6.65,6.65,0,0,0-4.46-1.56,7.47,7.47,0,0,0-5.59,2.31,13.17,13.17,0,0,0-3,5.67,28,28,0,0,0-.92,7.26,34.29,34.29,0,0,0,1,8.41,16.16,16.16,0,0,0,3.27,6.71A7.13,7.13,0,0,0,182.72,599.1Z"/><path d="M252.21,602.69a13.23,13.23,0,0,1-.28-2q0-.84-.12-1.95a17.94,17.94,0,0,1-5.79,4,16.35,16.35,0,0,1-6.34,1.27c-3.62,0-6.39-1-8.33-3a9.92,9.92,0,0,1-2.92-7.26,10.24,10.24,0,0,1,2.08-6.5,16,16,0,0,1,5.42-4.39,31.57,31.57,0,0,1,7.42-2.63,40.84,40.84,0,0,1,8.06-1v-4.39a16.36,16.36,0,0,0-.52-4.26,5.34,5.34,0,0,0-5.86-4.27,11.42,11.42,0,0,0-3.55.76,6,6,0,0,0-2.83,2.11,3.23,3.23,0,0,1,.79,1.56,7.63,7.63,0,0,1,.16,1.47,5.16,5.16,0,0,1-1.11,3,4,4,0,0,1-3.59,1.48,4.2,4.2,0,0,1-3.31-1.52,5.24,5.24,0,0,1-1.16-3.43,7.39,7.39,0,0,1,2.19-5.3,14.91,14.91,0,0,1,5.95-3.59,25,25,0,0,1,8.37-1.32q6.87,0,10.53,3.59t3.59,11.49v5.07c0,1.51,0,3,0,4.54s0,3.21,0,5.07c0,.8,0,1.79-.08,3s-.13,2.38-.24,3.55c1-.11,1.93-.17,2.92-.2s1.79-.06,2.43-.12v5.19Zm-.88-18.75a25.84,25.84,0,0,0-4.71.76,17.35,17.35,0,0,0-4.15,1.63,8.76,8.76,0,0,0-2.91,2.6,5.6,5.6,0,0,0-1,3.55,4.45,4.45,0,0,0,1.59,3.63,5.62,5.62,0,0,0,3.51,1.15,9.19,9.19,0,0,0,4.19-1,13.59,13.59,0,0,0,3.47-2.56v-9.81Z"/><path d="M310.92,604a20.61,20.61,0,0,1-9.85-2.39,17.91,17.91,0,0,1-7.18-7,21.61,21.61,0,0,1-2.67-11.05,23.14,23.14,0,0,1,1.51-8.34,22.65,22.65,0,0,1,4.27-7,20.38,20.38,0,0,1,6.58-4.86,19.65,19.65,0,0,1,8.46-1.8,20.3,20.3,0,0,1,8.22,1.48,12.13,12.13,0,0,1,5.1,3.91,8.66,8.66,0,0,1,1.76,5.14,6,6,0,0,1-1.24,3.75,4.42,4.42,0,0,1-3.55,1.68c-1.81,0-3.07-.47-3.79-1.56a5.63,5.63,0,0,1-1.08-3.07,6.76,6.76,0,0,1,.24-1.71,5.3,5.3,0,0,1,.8-1.72,3.86,3.86,0,0,0-1.83-2.11,8.75,8.75,0,0,0-2.64-.92,8.4,8.4,0,0,0-2.15-.16,9.19,9.19,0,0,0-7.26,4q-2.88,3.82-2.87,11.17a25.56,25.56,0,0,0,1.23,8.09,13.63,13.63,0,0,0,3.79,6,9.78,9.78,0,0,0,6.54,2.35,13.32,13.32,0,0,0,6.79-1.71,16,16,0,0,0,5.34-4.67l3.19,2.95a22.66,22.66,0,0,1-5.66,5.82,20.25,20.25,0,0,1-6.1,2.92A22.92,22.92,0,0,1,310.92,604Z"/><path d="M353,604a21.18,21.18,0,0,1-10.29-2.51,18.52,18.52,0,0,1-7.3-7.1,20.94,20.94,0,0,1-2.67-10.73,23.78,23.78,0,0,1,2.71-11.49,20.19,20.19,0,0,1,7.3-7.82,19,19,0,0,1,10.09-2.79,20.46,20.46,0,0,1,10.22,2.56,19.07,19.07,0,0,1,7.22,7.1A20.88,20.88,0,0,1,373,582a24.7,24.7,0,0,1-2.59,11.52A18.92,18.92,0,0,1,353,604Zm.4-4.86a6.86,6.86,0,0,0,5.51-2.24,12.86,12.86,0,0,0,2.67-5.7,33.66,33.66,0,0,0,.76-7.14,39.85,39.85,0,0,0-.52-6.3,24.51,24.51,0,0,0-1.64-5.79,11,11,0,0,0-3-4.14,6.66,6.66,0,0,0-4.47-1.56,7.47,7.47,0,0,0-5.58,2.31,13.17,13.17,0,0,0-3,5.67,28,28,0,0,0-.92,7.26,34.29,34.29,0,0,0,1,8.41,16.16,16.16,0,0,0,3.27,6.71A7.13,7.13,0,0,0,353.44,599.1Z"/><path d="M395.64,604a14.49,14.49,0,0,1-7.54-1.75,10.15,10.15,0,0,1-4.26-5.62,31.29,31.29,0,0,1-1.36-10.18V575.56c0-.9,0-1.91.08-3s.11-2.23.16-3.35c-.85.05-1.81.09-2.87.12s-1.94.07-2.63.12v-5.11h1.35a24.18,24.18,0,0,0,6.82-.75A9.41,9.41,0,0,0,388.7,562h3.67v24.41q0,5.75,1.56,8.54a5.35,5.35,0,0,0,5.06,2.79,10.12,10.12,0,0,0,4.75-1.43,13,13,0,0,0,3.79-3.2V575.88c0-1.06,0-2.16.08-3.31s.13-2.27.24-3.39q-1.28.08-2.91.12t-2.67.12v-5.11h2.07a19.9,19.9,0,0,0,6.1-.79,9.77,9.77,0,0,0,3.23-1.52h3.67v28.64c0,.75,0,1.84-.08,3.27s-.13,2.74-.24,3.91c.91-.11,1.87-.17,2.88-.2s1.83-.06,2.47-.12v5.19H408.49c-.11-.75-.2-1.49-.28-2.24s-.15-1.46-.2-2.15a30,30,0,0,1-5.55,4A13.76,13.76,0,0,1,395.64,604Z"/><path d="M427.79,602.69v-4.23a4.38,4.38,0,0,0,3.27-1,4.86,4.86,0,0,0,1.2-2.83,32.25,32.25,0,0,0,.24-4.15v-15c0-1,0-2,.08-3s.13-2.15.24-3.27l-2.91.16c-1.09,0-2,.11-2.68.16v-5.19a39.92,39.92,0,0,0,5.91-.35,15.21,15.21,0,0,0,3.59-.92,7.47,7.47,0,0,0,1.83-1h3.35a8.13,8.13,0,0,1,.16,1.44,9.14,9.14,0,0,0,.08,1.15c.06.4.14,1,.24,1.72a19,19,0,0,1,3.71-2.43,25.26,25.26,0,0,1,4.27-1.72,14.31,14.31,0,0,1,4-.64q7.18,0,10.29,4.23t3.11,13.48v12c0,.85,0,1.87,0,3.07a29.72,29.72,0,0,1-.28,3.47c.91-.11,1.84-.17,2.79-.2s1.76,0,2.4,0v5.11H453.24v-4.23a4.54,4.54,0,0,0,3.31-1,4.7,4.7,0,0,0,1.24-2.83,32.25,32.25,0,0,0,.24-4.15L458,579.15c0-3.83-.57-6.68-1.72-8.57s-3-2.83-5.62-2.83a11.66,11.66,0,0,0-4.55,1.11,12.19,12.19,0,0,0-3.75,2.63c.05.64.08,1.31.08,2v2.07l-.08,15.72c0,.85,0,1.87,0,3.07a27.69,27.69,0,0,1-.28,3.47c.85-.11,1.77-.17,2.76-.2s1.79,0,2.43,0v5.11Z"/><path d="M492.73,604a17.06,17.06,0,0,1-4.35-.55,9.47,9.47,0,0,1-3.83-2.08,10.43,10.43,0,0,1-2.75-4.51,24.87,24.87,0,0,1-1-7.93l.15-20.59-5.66.08V562.8a8.46,8.46,0,0,0,4.63-1.64,14.68,14.68,0,0,0,3.91-4.11,15.12,15.12,0,0,0,2.23-5.42h4.87l-.08,11.17h11.25v5.1l-11.25.24-.08,20.51a20.44,20.44,0,0,0,.44,4.42,6.51,6.51,0,0,0,1.59,3.24,4.2,4.2,0,0,0,3.15,1.19,8,8,0,0,0,3.47-1,11.11,11.11,0,0,0,3.95-3.82l3.27,2.95a19.72,19.72,0,0,1-4.11,4.7,16.93,16.93,0,0,1-4.06,2.48,12.83,12.83,0,0,1-3.47.95C494,603.91,493.21,604,492.73,604Z"/><path d="M509.4,598.46a4.41,4.41,0,0,0,3.28-1,4.92,4.92,0,0,0,1.19-2.83,32.25,32.25,0,0,0,.24-4.15v-15c0-1,0-2,.08-3s.13-2.15.24-3.27c-.9.05-1.89.09-2.95.12s-1.94.07-2.63.12v-5.11h2.95a16.39,16.39,0,0,0,5.34-.75,9.23,9.23,0,0,0,3-1.56h3.36a28.14,28.14,0,0,1,.23,3c.06,1.39.08,2.77.08,4.15a28.23,28.23,0,0,1,3.83-4.11,16.29,16.29,0,0,1,4.11-2.63,10.86,10.86,0,0,1,4.35-.92,7.42,7.42,0,0,1,4.51,1.44,5.37,5.37,0,0,1,2,4.63,5.57,5.57,0,0,1-.52,2.23,4.5,4.5,0,0,1-4.5,2.79,5.22,5.22,0,0,1-3.15-1.08,4.15,4.15,0,0,1-1.56-3.47,5.58,5.58,0,0,0-3.47,1.2,15.56,15.56,0,0,0-3.23,3.11,16.53,16.53,0,0,0-2.24,3.75l.08,15.16c0,.85,0,1.87-.08,3.07s-.13,2.35-.23,3.47c.85-.11,1.75-.17,2.71-.2s1.75,0,2.39,0v5.11H509.4Z"/><path d="M555.27,624.31a7.56,7.56,0,0,1-4.86-1.6,5.32,5.32,0,0,1-2-4.39,5.06,5.06,0,0,1,1.28-3.39,4.37,4.37,0,0,1,3.27-1.55,3.33,3.33,0,0,1,2.83,1.15,4.42,4.42,0,0,1,1.08,3V618a2.61,2.61,0,0,1-.08.6h.56a3.39,3.39,0,0,0,1.71-1.15,10.6,10.6,0,0,0,1.72-2.68,44.39,44.39,0,0,0,2-4.5q1-2.68,2-5.95l-12.53-25.77a57.82,57.82,0,0,1-2.91-6.86c-.5-1.59-.86-2.92-1.08-4l-3.67.15v-5.1h18.75V567h-.16c-2,.16-3.14.91-3.35,2.27a9,9,0,0,0,1,5l8.38,18.59q1.11-3.12,2.51-7.66t3.15-9.58c.27-.85.6-1.79,1-2.83s.81-2,1.23-3a8.24,8.24,0,0,1,1.28-2.15l-4.87.23v-5.1h13.65V567a6.94,6.94,0,0,0-4.19,3.23,33.22,33.22,0,0,0-2.91,6.26l-10,28.24q-2.31,6.54-4.3,10.89a19.33,19.33,0,0,1-4.43,6.5A8.88,8.88,0,0,1,555.27,624.31Z"/><path d="M610.72,598.46a4.55,4.55,0,0,0,3.31-1,4.62,4.62,0,0,0,1.2-2.83,39.52,39.52,0,0,0,.2-4.15V556c0-.91,0-1.9.08-3s.13-2.22.24-3.39l-3,.15c-1.06.06-2,.11-2.71.17v-5.19a41,41,0,0,0,6-.36,15.4,15.4,0,0,0,3.67-.92,7.78,7.78,0,0,0,1.88-1h3.59l.08,48.82c0,.85,0,1.87-.08,3.07s-.16,2.35-.32,3.47c.9-.11,1.83-.17,2.79-.2s1.76,0,2.39,0v5.11H610.72Z"/><path d="M635.69,598.46a4.4,4.4,0,0,0,3.27-1,4.86,4.86,0,0,0,1.2-2.83,32.25,32.25,0,0,0,.24-4.15V575.56c0-.9,0-1.9.08-3s.13-2.22.23-3.39l-3,.16c-1.06,0-1.94.11-2.63.16v-5.19a40.64,40.64,0,0,0,5.94-.35,15.9,15.9,0,0,0,3.67-.92,7.41,7.41,0,0,0,1.88-1h3.59v29.28c0,.85,0,1.87,0,3.07a29.72,29.72,0,0,1-.28,3.47c.85-.11,1.77-.17,2.75-.2s1.8,0,2.43,0v5.11H635.69Zm9.17-43.32a5.13,5.13,0,0,1-3.91-1.72,5.91,5.91,0,0,1-1.59-4.18A6,6,0,0,1,641,545a5.12,5.12,0,0,1,3.87-1.76,5,5,0,0,1,3.87,1.76,6.15,6.15,0,0,1,1.56,4.23,6.08,6.08,0,0,1-1.52,4.18A5,5,0,0,1,644.86,555.14Z"/><path d="M659.46,602.69v-4.23a4.54,4.54,0,0,0,3.31-1,4.7,4.7,0,0,0,1.24-2.83,32.25,32.25,0,0,0,.24-4.15V556c0-.91,0-1.9.08-3s.13-2.22.24-3.39l-3,.15c-1.07.06-2,.11-2.72.17v-5.19a40.45,40.45,0,0,0,6-.36,15.52,15.52,0,0,0,3.63-.92,7.87,7.87,0,0,0,1.87-1h3.67v36.85h3.59l7.1-7.82c.75-.79,1.4-1.5,2-2.11a10.61,10.61,0,0,1,1.71-1.55l-4.63.07v-5.1h16.76V567a13.2,13.2,0,0,0-4.95,1.39,18.46,18.46,0,0,0-3.91,2.68c-1.12,1-2.1,2-3,2.87L683.31,580a8.09,8.09,0,0,1,2.44,1.68,30.42,30.42,0,0,1,2.67,3l5.42,7.1c.32.37.76.91,1.32,1.63s1.2,1.47,1.92,2.24a11.39,11.39,0,0,0,2.35,1.95,4.79,4.79,0,0,0,2.55.8v4.23h-8.53a6.08,6.08,0,0,1-4.43-2,48.67,48.67,0,0,1-4.35-5.14c-1.06-1.49-2.13-3-3.19-4.51l-2.91-4.15c-.88-1.25-1.61-2.22-2.2-2.91l-2.31.08v7.18c0,.85,0,1.87-.08,3.07s-.13,2.35-.24,3.47c.85-.11,1.76-.17,2.71-.2s1.79,0,2.48,0v5.11Z"/><path d="M724,604a20,20,0,0,1-10.21-2.59,17.76,17.76,0,0,1-6.94-7.34,23.92,23.92,0,0,1-2.47-11.21,22.75,22.75,0,0,1,2.47-10.45,20.36,20.36,0,0,1,7-7.86,18.55,18.55,0,0,1,10.49-3,21.78,21.78,0,0,1,6.46,1,14.69,14.69,0,0,1,5.59,3.19,15.89,15.89,0,0,1,4,5.9,23.21,23.21,0,0,1,1.39,8.94l-26.8.48a29.93,29.93,0,0,0,1.15,8.73,12.2,12.2,0,0,0,3.79,6,10.51,10.51,0,0,0,6.94,2.19,14,14,0,0,0,4.11-.68,17.57,17.57,0,0,0,4.35-2.07,16.34,16.34,0,0,0,3.83-3.47l3,2.79a21.25,21.25,0,0,1-5.82,5.9,20.39,20.39,0,0,1-6.39,2.84A25.83,25.83,0,0,1,724,604Zm-8.69-27.76H731.9a16.19,16.19,0,0,0-.92-5.38,7.14,7.14,0,0,0-2.43-3.35,6.51,6.51,0,0,0-3.91-1.16,8,8,0,0,0-6.26,2.59A13.6,13.6,0,0,0,715.31,576.2Z"/><path d="M768.91,602.69v-4.23a4.37,4.37,0,0,0,3.27-1,4.86,4.86,0,0,0,1.2-2.83,32.25,32.25,0,0,0,.24-4.15v-15c0-1,0-2,.08-3s.13-2.15.24-3.27l-2.91.16c-1.09,0-2,.11-2.68.16v-5.19a39.92,39.92,0,0,0,5.91-.35,15.21,15.21,0,0,0,3.59-.92,7.47,7.47,0,0,0,1.83-1H783a8.13,8.13,0,0,1,.16,1.44,9.14,9.14,0,0,0,.08,1.15c.06.4.14,1,.24,1.72a19,19,0,0,1,3.71-2.43,25.26,25.26,0,0,1,4.27-1.72,14.31,14.31,0,0,1,4-.64q7.18,0,10.29,4.23t3.11,13.48v12c0,.85,0,1.87,0,3.07a29.72,29.72,0,0,1-.28,3.47c.91-.11,1.84-.17,2.79-.2s1.76,0,2.4,0v5.11H794.36v-4.23a4.54,4.54,0,0,0,3.31-1,4.7,4.7,0,0,0,1.24-2.83,32.25,32.25,0,0,0,.24-4.15l-.08-11.33c0-3.83-.57-6.68-1.72-8.57s-3-2.83-5.62-2.83a11.66,11.66,0,0,0-4.55,1.11,12.19,12.19,0,0,0-3.75,2.63c.06.64.08,1.31.08,2v2.07l-.08,15.72c0,.85,0,1.87,0,3.07a27.69,27.69,0,0,1-.28,3.47c.85-.11,1.77-.17,2.76-.2s1.79,0,2.43,0v5.11Z"/><path d="M838.48,604a21.13,21.13,0,0,1-10.29-2.51,18.46,18.46,0,0,1-7.3-7.1,20.84,20.84,0,0,1-2.68-10.73,23.79,23.79,0,0,1,2.72-11.49,20.11,20.11,0,0,1,7.3-7.82,19,19,0,0,1,10.09-2.79,20.42,20.42,0,0,1,10.21,2.56,19,19,0,0,1,7.22,7.1A20.88,20.88,0,0,1,858.42,582a24.58,24.58,0,0,1-2.59,11.52A18.89,18.89,0,0,1,838.48,604Zm.4-4.86a6.85,6.85,0,0,0,5.5-2.24,12.65,12.65,0,0,0,2.67-5.7,33,33,0,0,0,.76-7.14,38.7,38.7,0,0,0-.52-6.3,24.51,24.51,0,0,0-1.63-5.79,11.13,11.13,0,0,0-2.95-4.14,6.69,6.69,0,0,0-4.47-1.56,7.51,7.51,0,0,0-5.59,2.31,13.17,13.17,0,0,0-3,5.67,28,28,0,0,0-.91,7.26,34.28,34.28,0,0,0,1,8.41,16.16,16.16,0,0,0,3.27,6.71A7.13,7.13,0,0,0,838.88,599.1Z"/><path d="M905.09,604a21.13,21.13,0,0,1-10.29-2.51,18.46,18.46,0,0,1-7.3-7.1,20.94,20.94,0,0,1-2.67-10.73,23.78,23.78,0,0,1,2.71-11.49,20.19,20.19,0,0,1,7.3-7.82,19,19,0,0,1,10.09-2.79,20.4,20.4,0,0,1,10.21,2.56,19,19,0,0,1,7.22,7.1A20.88,20.88,0,0,1,925,582a24.58,24.58,0,0,1-2.59,11.52A18.89,18.89,0,0,1,905.09,604Zm.4-4.86a6.84,6.84,0,0,0,5.5-2.24,12.76,12.76,0,0,0,2.68-5.7,33.66,33.66,0,0,0,.75-7.14,39.83,39.83,0,0,0-.51-6.3,25,25,0,0,0-1.64-5.79,11.13,11.13,0,0,0-2.95-4.14,6.67,6.67,0,0,0-4.47-1.56,7.47,7.47,0,0,0-5.58,2.31,13.18,13.18,0,0,0-3,5.67,28,28,0,0,0-.91,7.26,34.28,34.28,0,0,0,1,8.41,16.17,16.17,0,0,0,3.28,6.71A7.11,7.11,0,0,0,905.49,599.1Z"/><path d="M946.65,604a16.93,16.93,0,0,1-4.34-.55,9.4,9.4,0,0,1-3.83-2.08,10.35,10.35,0,0,1-2.76-4.51,24.87,24.87,0,0,1-1-7.93l.16-20.59-5.67.08V562.8a8.46,8.46,0,0,0,4.63-1.64,14.68,14.68,0,0,0,3.91-4.11,15.12,15.12,0,0,0,2.23-5.42h4.87l-.08,11.17H956v5.1l-11.25.24-.08,20.51a20.44,20.44,0,0,0,.44,4.42,6.51,6.51,0,0,0,1.59,3.24,4.2,4.2,0,0,0,3.15,1.19,8,8,0,0,0,3.47-1,11.11,11.11,0,0,0,4-3.82l3.27,2.95a19.93,19.93,0,0,1-4.1,4.7,17,17,0,0,1-4.07,2.48,12.83,12.83,0,0,1-3.47.95C947.88,603.91,947.13,604,946.65,604Z"/><path d="M987.74,598.46a4.4,4.4,0,0,0,3.27-1,4.86,4.86,0,0,0,1.19-2.83,32.25,32.25,0,0,0,.24-4.15V579.15c0-3.83-.59-6.67-1.79-8.53a6.14,6.14,0,0,0-5.55-2.79,10.93,10.93,0,0,0-4.58,1,11.62,11.62,0,0,0-3.71,2.56v19.86c0,.85,0,1.87-.08,3.07s-.16,2.35-.32,3.47c.9-.11,1.83-.17,2.79-.2s1.76,0,2.39,0v5.11H962.21v-4.23a4.55,4.55,0,0,0,3.31-1,4.62,4.62,0,0,0,1.2-2.83,39.52,39.52,0,0,0,.2-4.15V556c0-.91,0-1.9.08-3s.13-2.22.23-3.39l-3,.15c-1.06.06-1.94.11-2.63.17v-5.19a40.2,40.2,0,0,0,6-.36,15.39,15.39,0,0,0,3.63-.92,8,8,0,0,0,1.88-1h3.67v23.77a17.79,17.79,0,0,1,3.71-2.39,26.76,26.76,0,0,1,4.35-1.68,15.06,15.06,0,0,1,4.06-.64q7.19,0,10.22,4.23t3.11,13.48l.08,12c0,.85,0,1.87-.08,3.07s-.14,2.35-.24,3.47c.85-.11,1.74-.17,2.67-.2s1.74,0,2.43,0v5.11H987.74Z"/><path d="M1031.38,604a20,20,0,0,1-10.22-2.59,17.76,17.76,0,0,1-6.94-7.34,23.92,23.92,0,0,1-2.47-11.21,22.75,22.75,0,0,1,2.47-10.45,20.44,20.44,0,0,1,7-7.86,18.59,18.59,0,0,1,10.49-3,21.84,21.84,0,0,1,6.47,1,14.73,14.73,0,0,1,5.58,3.19,15.66,15.66,0,0,1,4,5.9,23.2,23.2,0,0,1,1.4,8.94l-26.81.48a29.92,29.92,0,0,0,1.16,8.73,12.14,12.14,0,0,0,3.79,6,10.49,10.49,0,0,0,6.94,2.19,14.11,14.11,0,0,0,4.11-.68,17.34,17.34,0,0,0,4.34-2.07,16.14,16.14,0,0,0,3.83-3.47l3,2.79a21.11,21.11,0,0,1-5.82,5.9,20.34,20.34,0,0,1-6.38,2.84A26,26,0,0,1,1031.38,604Zm-8.7-27.76h16.59a16.47,16.47,0,0,0-.91-5.38,7.08,7.08,0,0,0-2.44-3.35,6.47,6.47,0,0,0-3.91-1.16,8,8,0,0,0-6.26,2.59A13.68,13.68,0,0,0,1022.68,576.2Z"/><path d="M1055.31,598.46a4.4,4.4,0,0,0,3.27-1,4.86,4.86,0,0,0,1.2-2.83,34.31,34.31,0,0,0,.23-4.15v-15c0-1,0-2,.08-3s.14-2.15.24-3.27c-.9.05-1.88.09-2.95.12s-1.94.07-2.63.12v-5.11h3a16.46,16.46,0,0,0,5.35-.75,9.45,9.45,0,0,0,3-1.56h3.35a30.32,30.32,0,0,1,.24,3c0,1.39.08,2.77.08,4.15a27.69,27.69,0,0,1,3.83-4.11,16.29,16.29,0,0,1,4.11-2.63,10.78,10.78,0,0,1,4.34-.92,7.4,7.4,0,0,1,4.51,1.44,5.37,5.37,0,0,1,2,4.63,5.75,5.75,0,0,1-.52,2.23,4.84,4.84,0,0,1-1.6,2,4.74,4.74,0,0,1-2.91.8,5.22,5.22,0,0,1-3.15-1.08,4.15,4.15,0,0,1-1.56-3.47,5.6,5.6,0,0,0-3.47,1.2,15.56,15.56,0,0,0-3.23,3.11,16.12,16.12,0,0,0-2.23,3.75l.08,15.16c0,.85,0,1.87-.08,3.07s-.14,2.35-.24,3.47c.85-.11,1.75-.17,2.71-.2s1.76,0,2.39,0v5.11h-19.38Z"/><path class="cls-2" d="M388.06,1076.56v-4.38a7.28,7.28,0,0,0,3.43-.8,3.91,3.91,0,0,0,1.68-2.43,18.9,18.9,0,0,0,.48-4.83v-31.51q0-2.16.12-4c.08-1.22.14-2.18.2-2.87-.91,0-1.94.09-3.11.12s-2.11.06-2.8.12v-5.27q5.12-.08,10.3-.08c3.45,0,6.94,0,10.45-.08q9.4-.07,14.91,3.43t5.19,10.77a9.78,9.78,0,0,1-1.44,4.71,13.44,13.44,0,0,1-4,4.15,19.61,19.61,0,0,1-6.63,2.79v.08q8.22.87,12.21,4.91a12.9,12.9,0,0,1,4,9.37,14.63,14.63,0,0,1-2.47,8.61,15.41,15.41,0,0,1-6.83,5.35,25.14,25.14,0,0,1-9.85,1.83Zm15.32-4.86c.91,0,1.85.08,2.83.08s1.93,0,2.84,0,1.67,0,2.31,0q5.26-.17,8-3.07a12.87,12.87,0,0,0,1.11-14.24,8.74,8.74,0,0,0-4.22-3.27,15.87,15.87,0,0,0-5.55-1H407c-1.06,0-2.15,0-3.27.16V1065c0,1.43,0,2.74-.08,3.91A25.51,25.51,0,0,1,403.38,1071.7Zm.32-26.25,4.71-.08a10.3,10.3,0,0,0,5.9-1.63,8.78,8.78,0,0,0,3.11-4.07,15.23,15.23,0,0,0,1-5.47,9.18,9.18,0,0,0-1.56-5.46,7.92,7.92,0,0,0-3.63-2.75,11.64,11.64,0,0,0-4.46-.72,7.14,7.14,0,0,0-2.8.48,3.21,3.21,0,0,0-1.67,2,14,14,0,0,0-.56,4.55Z"/><path class="cls-2" d="M458.59,1077.84a21.24,21.24,0,0,1-10.29-2.51,18.52,18.52,0,0,1-7.3-7.1,20.87,20.87,0,0,1-2.68-10.73A23.79,23.79,0,0,1,441,1046a20,20,0,0,1,7.3-7.82,19,19,0,0,1,10.09-2.79,20.52,20.52,0,0,1,10.21,2.55,19.15,19.15,0,0,1,7.22,7.1,20.88,20.88,0,0,1,2.67,10.77,24.62,24.62,0,0,1-2.59,11.53,18.89,18.89,0,0,1-17.35,10.49Zm.4-4.87a6.85,6.85,0,0,0,5.5-2.23,12.7,12.7,0,0,0,2.67-5.7,33.16,33.16,0,0,0,.76-7.14,38.82,38.82,0,0,0-.52-6.31,24.56,24.56,0,0,0-1.63-5.78,11.07,11.07,0,0,0-3-4.15,6.69,6.69,0,0,0-4.46-1.55,7.51,7.51,0,0,0-5.59,2.31,13.19,13.19,0,0,0-3,5.66,28.1,28.1,0,0,0-.92,7.26,34.31,34.31,0,0,0,1,8.42,16.11,16.11,0,0,0,3.27,6.7A7.08,7.08,0,0,0,459,1073Z"/><path class="cls-2" d="M504.22,1077.84a21.24,21.24,0,0,1-10.29-2.51,18.52,18.52,0,0,1-7.3-7.1A21,21,0,0,1,484,1057.5a23.78,23.78,0,0,1,2.71-11.49,20.12,20.12,0,0,1,7.3-7.82,19,19,0,0,1,10.09-2.79,20.52,20.52,0,0,1,10.21,2.55,19.15,19.15,0,0,1,7.22,7.1,20.88,20.88,0,0,1,2.67,10.77,24.62,24.62,0,0,1-2.59,11.53,18.89,18.89,0,0,1-17.35,10.49Zm.4-4.87a6.83,6.83,0,0,0,5.5-2.23,12.7,12.7,0,0,0,2.67-5.7,33.16,33.16,0,0,0,.76-7.14,38.82,38.82,0,0,0-.52-6.31,24.56,24.56,0,0,0-1.63-5.78,11.17,11.17,0,0,0-2.95-4.15,6.74,6.74,0,0,0-4.47-1.55,7.51,7.51,0,0,0-5.59,2.31,13.19,13.19,0,0,0-3,5.66,28.1,28.1,0,0,0-.91,7.26,34.3,34.3,0,0,0,1,8.42,16.11,16.11,0,0,0,3.27,6.7A7.08,7.08,0,0,0,504.62,1073Z"/><path class="cls-2" d="M528.87,1076.56v-4.22a4.6,4.6,0,0,0,3.31-1,4.79,4.79,0,0,0,1.24-2.83,32.37,32.37,0,0,0,.24-4.15V1029.9c0-.91,0-1.91.08-3s.13-2.22.24-3.39c-.91.06-1.89.11-3,.16l-2.71.16v-5.18a40.2,40.2,0,0,0,6-.36,15.75,15.75,0,0,0,3.63-.92,7.41,7.41,0,0,0,1.88-1h3.67v36.86h3.59l7.1-7.82,2-2.11a11.73,11.73,0,0,1,1.72-1.56l-4.63.08v-5.1H570v4.22a13.21,13.21,0,0,0-4.94,1.4,18.43,18.43,0,0,0-3.91,2.67c-1.12,1-2.1,2-3,2.87l-5.43,6.07a8.5,8.5,0,0,1,2.44,1.67,32.89,32.89,0,0,1,2.67,3l5.42,7.1c.32.38.76.92,1.32,1.64s1.2,1.46,1.91,2.23a11.44,11.44,0,0,0,2.36,2,4.79,4.79,0,0,0,2.55.8v4.22h-8.54a6.11,6.11,0,0,1-4.42-2,46.77,46.77,0,0,1-4.35-5.15c-1.07-1.48-2.13-3-3.19-4.5l-2.91-4.15c-.88-1.25-1.61-2.22-2.2-2.91l-2.31.08v7.18c0,.85,0,1.87-.08,3.07s-.13,2.35-.24,3.47c.85-.11,1.75-.17,2.71-.2s1.78,0,2.47,0v5.1Z"/><path class="cls-2" d="M619.73,1076.56a14.28,14.28,0,0,1-.28-2q0-.84-.12-2a17.91,17.91,0,0,1-5.78,4,16.21,16.21,0,0,1-6.34,1.28q-5.43,0-8.34-2.95a10,10,0,0,1-2.91-7.26,10.3,10.3,0,0,1,2.07-6.5,16,16,0,0,1,5.43-4.39,31.41,31.41,0,0,1,7.42-2.63,40.11,40.11,0,0,1,8.06-1v-4.39a16.93,16.93,0,0,0-.52-4.27,5.34,5.34,0,0,0-5.87-4.26,11.46,11.46,0,0,0-3.55.75,6.08,6.08,0,0,0-2.83,2.12,3.26,3.26,0,0,1,.8,1.55,7.8,7.8,0,0,1,.16,1.48,5.14,5.14,0,0,1-1.12,3,3.94,3.94,0,0,1-3.59,1.48,4.24,4.24,0,0,1-3.31-1.52,5.31,5.31,0,0,1-1.16-3.43,7.4,7.4,0,0,1,2.2-5.3,14.83,14.83,0,0,1,5.94-3.59,25.1,25.1,0,0,1,8.38-1.32q6.85,0,10.53,3.59t3.59,11.49v5.06c0,1.52,0,3,0,4.55s0,3.2,0,5.07c0,.79,0,1.79-.08,3s-.13,2.38-.24,3.55c1-.11,1.93-.17,2.91-.2s1.8-.07,2.44-.12v5.18Zm-.87-18.74a24.87,24.87,0,0,0-4.71.76,16.78,16.78,0,0,0-4.15,1.63,8.73,8.73,0,0,0-2.91,2.59,5.68,5.68,0,0,0-1,3.55,4.46,4.46,0,0,0,1.6,3.63,5.63,5.63,0,0,0,3.51,1.16,9.07,9.07,0,0,0,4.19-1,14,14,0,0,0,3.47-2.55v-9.81Z"/><path class="cls-2" d="M701.58,1038.35a20.93,20.93,0,0,0-1.11-7.38,8.8,8.8,0,0,0-3.31-4.35,9.6,9.6,0,0,0-5.55-1.35h-4.86v39.41c0,1.43,0,2.76-.08,4s-.14,2.18-.24,2.87c1,0,2.16-.11,3.47-.16s2.3-.08,3-.08v5.26H671.11v-4.38a7.31,7.31,0,0,0,3.43-.8,3.85,3.85,0,0,0,1.67-2.39,18,18,0,0,0,.48-4.71l.08-38.93h-5.18a8.81,8.81,0,0,0-7.18,3.19q-2.48,3.11-2.48,9.81h-4.46l.4-17.63h47.78l.48,17.63Z"/><path class="cls-2" d="M710.36,1072.34a4.44,4.44,0,0,0,3.27-1,4.89,4.89,0,0,0,1.2-2.83,32.37,32.37,0,0,0,.24-4.15v-15c0-1,0-2,.08-3s.13-2.16.23-3.27c-.9,0-1.88.09-3,.12s-1.94.07-2.63.12v-5.11h3a16.17,16.17,0,0,0,5.35-.76,9.27,9.27,0,0,0,3-1.55h3.35a30.32,30.32,0,0,1,.24,3c0,1.38.08,2.77.08,4.15a26.74,26.74,0,0,1,3.83-4.11,16.29,16.29,0,0,1,4.11-2.63,10.78,10.78,0,0,1,4.34-.92,7.38,7.38,0,0,1,4.51,1.44,5.35,5.35,0,0,1,2,4.62,5.79,5.79,0,0,1-.52,2.24,4.9,4.9,0,0,1-1.6,2,4.81,4.81,0,0,1-2.91.8,5.22,5.22,0,0,1-3.15-1.08,4.19,4.19,0,0,1-1.56-3.47,5.6,5.6,0,0,0-3.47,1.2,16.56,16.56,0,0,0-5.46,6.86l.08,15.16c0,.85,0,1.87-.08,3.07s-.14,2.35-.24,3.47c.85-.11,1.75-.17,2.71-.2s1.76,0,2.39,0v5.1H710.36Z"/><path class="cls-2" d="M747.37,1072.34a4.45,4.45,0,0,0,3.28-1,5,5,0,0,0,1.19-2.83,32.37,32.37,0,0,0,.24-4.15v-14.92c0-.9,0-1.9.08-3s.13-2.22.24-3.39l-2.95.16c-1.07,0-1.94.11-2.63.16v-5.19a40.46,40.46,0,0,0,5.94-.36,16.1,16.1,0,0,0,3.67-.91,7.63,7.63,0,0,0,1.87-1h3.59v29.28c0,.85,0,1.87,0,3.07a27.85,27.85,0,0,1-.28,3.47c.85-.11,1.77-.17,2.76-.2s1.79,0,2.43,0v5.1H747.37Zm9.18-43.32a5.12,5.12,0,0,1-3.91-1.72,5.9,5.9,0,0,1-1.6-4.19,6,6,0,0,1,1.64-4.22,5.12,5.12,0,0,1,3.87-1.76,5,5,0,0,1,3.87,1.76,6.18,6.18,0,0,1,1.55,4.22,6.1,6.1,0,0,1-1.51,4.19A5,5,0,0,1,756.55,1029Z"/><path class="cls-2" d="M771.47,1096.91v-4.23a4.55,4.55,0,0,0,3.31-1,4.76,4.76,0,0,0,1.23-2.83,32.25,32.25,0,0,0,.24-4.15l.08-35.34c0-1,0-2,0-3a28.68,28.68,0,0,1,.28-3.27l-3,.16c-1.09,0-2,.11-2.67.16v-5.19a39.43,39.43,0,0,0,5.94-.36,14.34,14.34,0,0,0,3.51-.91,8.16,8.16,0,0,0,1.8-1h3.43a18.65,18.65,0,0,1,.24,1.91c.05.75.1,1.44.16,2.08a17.39,17.39,0,0,1,5.58-3.39,16.49,16.49,0,0,1,5.66-1.08,15.34,15.34,0,0,1,8.54,2.43,16.55,16.55,0,0,1,5.9,6.94,24.45,24.45,0,0,1,2.16,10.65,25.1,25.1,0,0,1-2.6,11.61,20,20,0,0,1-7.06,7.94,18.61,18.61,0,0,1-10.29,2.87,16.24,16.24,0,0,1-4.3-.52,20.6,20.6,0,0,1-3.59-1.31v9.49c0,.85,0,1.87,0,3.07a29.72,29.72,0,0,1-.28,3.47c.85-.11,1.75-.17,2.71-.2s1.75,0,2.39,0v5.11Zm21.62-24.1a8.49,8.49,0,0,0,5.94-2.27,12.77,12.77,0,0,0,3.31-5.86,29.34,29.34,0,0,0,1-8,27.2,27.2,0,0,0-1-7.42,12.82,12.82,0,0,0-3.15-5.66,7.76,7.76,0,0,0-5.75-2.16,9.87,9.87,0,0,0-7.41,3.83v25.53a11.21,11.21,0,0,0,3.11,1.44A13.39,13.39,0,0,0,793.09,1072.81Z"/></g></g></svg>